<?xml version="1.0" standalone="no"?>
<!DOCTYPE svg PUBLIC "-//W3C//DTD SVG 20010904//EN"
 "http://www.w3.org/TR/2001/REC-SVG-20010904/DTD/svg10.dtd">
<svg version="1.0" xmlns="http://www.w3.org/2000/svg"
 width="331.000000pt" height="270.000000pt" viewBox="0 0 331.000000 270.000000"
 preserveAspectRatio="xMidYMid meet">
<metadata>
Created by potrace 1.15, written by Peter Selinger 2001-2017
</metadata>
<g transform="translate(0.000000,270.000000) scale(0.100000,-0.100000)"
fill="#000000" stroke="none">
<path d="M896 2625 c-51 -18 -104 -70 -117 -116 -16 -50 15 -118 68 -153 54
-36 121 -46 314 -46 l169 0 0 -45 c0 -43 -1 -44 -37 -50 -207 -34 -346 -72
-504 -135 -283 -114 -478 -271 -573 -461 -115 -229 -70 -460 129 -664 193
-196 508 -342 870 -403 l110 -19 3 -46 3 -45 -198 -4 c-190 -3 -201 -4 -248
-29 -147 -75 -147 -253 1 -329 l48 -25 721 0 c683 0 722 1 755 19 80 43 120
99 120 171 0 55 -10 77 -59 128 -54 57 -102 67 -313 67 l-179 0 3 47 3 46 100
17 c546 94 953 361 1049 689 23 79 21 216 -5 294 -62 189 -228 359 -468 481
-174 88 -370 153 -561 186 -129 22 -120 17 -120 65 l0 43 203 4 c227 4 252 11
315 83 70 79 22 194 -97 234 -54 18 -1453 15 -1505 -4z m1500 -69 c46 -46 48
-101 5 -148 l-29 -33 -284 -5 -283 -5 0 -135 0 -135 40 -3 c22 -1 96 -12 164
-23 660 -109 1050 -513 862 -893 -127 -258 -485 -454 -935 -512 l-136 -18 0
-137 0 -138 278 -3 c299 -3 304 -4 336 -59 27 -46 21 -96 -18 -135 l-34 -34
-717 0 -717 0 -34 34 c-37 37 -45 82 -22 130 26 58 38 61 341 64 l277 3 0 139
0 139 -57 6 c-438 49 -799 219 -955 449 -232 340 10 729 562 904 125 39 170
49 320 71 l125 17 0 135 0 134 -283 5 -284 5 -29 33 c-43 47 -41 102 5 148
l34 34 717 0 717 0 34 -34z"/>
<path d="M1355 1964 c-406 -72 -691 -258 -760 -498 -47 -160 32 -337 207 -467
104 -77 213 -129 363 -173 112 -33 300 -68 318 -59 4 2 7 276 7 609 l0 604
-27 -1 c-16 0 -64 -7 -108 -15z"/>
<path d="M1800 1369 l0 -610 48 6 c347 46 592 150 749 319 274 292 91 656
-412 821 -103 34 -299 75 -357 75 l-28 0 0 -611z"/>
</g>
</svg>
