<?xml version="1.0" standalone="no"?>
<!DOCTYPE svg PUBLIC "-//W3C//DTD SVG 20010904//EN"
 "http://www.w3.org/TR/2001/REC-SVG-20010904/DTD/svg10.dtd">
<svg version="1.0" xmlns="http://www.w3.org/2000/svg"
 width="225.000000pt" height="225.000000pt" viewBox="0 0 225.000000 225.000000"
 preserveAspectRatio="xMidYMid meet">
<metadata>
Created by potrace 1.15, written by Peter Selinger 2001-2017
</metadata>
<g transform="translate(0.000000,225.000000) scale(0.100000,-0.100000)"
fill="#000000" stroke="none">
<path d="M1005 2069 c-89 -11 -222 -52 -300 -91 -197 -100 -343 -249 -439
-449 -113 -233 -126 -503 -36 -752 91 -251 316 -476 567 -567 181 -65 399 -77
578 -30 320 83 578 328 678 645 153 485 -102 1011 -577 1190 -138 52 -327 74
-471 54z m706 -558 c49 -50 35 -124 -28 -150 -21 -8 -175 -11 -567 -9 l-538 3
-24 28 c-36 42 -33 98 7 131 l31 26 545 0 545 0 29 -29z m-21 -316 c59 -30 68
-98 21 -146 l-29 -29 -545 0 -545 0 -31 26 c-24 20 -31 34 -31 63 0 41 22 78
54 91 11 5 259 9 549 9 452 1 532 -1 557 -14z m24 -356 c33 -39 33 -79 0 -118
l-26 -31 -554 0 -555 0 -24 25 c-19 18 -25 35 -25 65 0 30 6 47 25 65 l24 25
555 0 554 0 26 -31z"/>
</g>
</svg>
